<svg width="1034" height="1034" viewBox="0 0 1034 1034" fill="none" xmlns="http://www.w3.org/2000/svg">
<path d="M423.859 17.5459C581.06 -10.7071 722.264 27.4053 844.779 129.308C933.282 202.921 990.463 297.511 1013.59 410.214C1048.11 578.463 1007.43 728.895 893.484 857.297C812.754 948.266 710.335 1001.87 590.11 1019.91C386.944 1050.4 192.02 953.849 86.7881 787.659C78.9499 775.281 71.9587 761.94 64.6963 749.253L64.5947 749.076L64.5029 748.896C36.7528 694.554 18.9238 637.683 12.1631 577.516C-3.66462 436.655 31.6873 309.399 120.553 198.91C198.809 101.612 300.363 39.7414 423.859 17.5459ZM790.763 118.833C676.241 40.1442 550.07 14.4869 413.935 43.9502C301.006 68.391 208.904 127.538 136.986 217.88C71.903 299.637 38.0298 393.584 32.3672 497.857C30.3109 535.723 33.8539 573.505 41.5605 610.888C63.4435 717.034 114.018 806.932 195.355 878.295C306.849 976.115 436.528 1016.48 583.825 996.604C693.286 981.835 786.129 932.913 864.883 853.664C879.568 838.603 893.208 822.738 905.488 805.794C986.33 694.249 1017.99 570.65 994.205 435.066C970.826 301.79 902.396 195.538 790.763 118.833Z" fill="#7C877F" stroke="#7C877F" stroke-width="17"/>
<path d="M627.888 981.797C437.237 1020.25 277.09 968.039 149.77 821.659C92.2768 755.559 58.5636 677.245 44.6842 590.519C38.8647 554.156 36.8232 517.621 39.9563 481.039C48.0827 386.156 79.8906 300.13 138.905 224.857C204.615 141.044 288.801 84.462 391.411 55.8004C445.859 40.5918 501.427 36.6348 557.731 41.2883C651.224 49.0154 735.276 81.4841 808.969 139.187C903.101 212.892 963.404 308.483 985.397 426.3C1013.77 578.279 976.154 713.797 876.13 831.052C810.492 907.998 726.731 957.13 627.888 981.797ZM275.461 113.524C143.447 196.854 66.8034 315.602 48.3471 470.868C42.5252 519.846 45.5025 568.876 56.8149 616.967C89.7067 756.795 169.022 862.316 294.623 931.741C373.823 975.519 459.451 992.756 549.974 986.498C602.067 982.896 652.071 971.208 699.906 950.841C900.104 865.601 1020.19 653.02 980.305 433.633C959.225 317.688 901.735 222.024 809.371 149.012C708.375 69.1773 592.967 35.8656 464.366 49.3269C396.868 56.3923 334.682 78.4876 275.461 113.524Z" fill="#7C877F"/>
<path d="M556.828 281.202C610.265 281.178 662.835 281.127 715.405 281.173C720.585 281.177 725.825 281.389 730.931 282.187C740.745 283.719 746.364 289.965 746.379 299.95C746.472 363.783 746.349 427.615 746.388 491.447C746.391 496.421 744.88 499.407 739.711 500.956C734.79 502.43 730.117 504.918 725.557 507.374C715.469 512.806 714 512.009 713.992 500.157C713.957 447.011 713.969 393.865 713.959 340.719C713.958 334.654 713.764 328.583 713.955 322.524C714.142 316.595 711.299 314.076 705.615 314.096C702.15 314.108 698.685 313.92 695.219 313.922C558.891 313.984 422.563 314.112 286.235 313.997C277.978 313.991 275.471 316.391 275.48 324.929C275.581 429.194 275.281 533.459 274.995 637.723C274.984 641.868 276.175 646.339 272.981 650.615C269.322 649.198 269.374 645.779 268.521 643.006C265.393 632.839 258.345 626.471 248.762 622.599C243.507 620.476 240.201 622.015 239.963 627.989C239.722 634.046 239.871 640.119 239.656 646.178C239.437 652.36 242.074 655.024 248.425 654.978C290.592 654.674 332.761 654.673 374.928 654.354C417.386 654.033 459.84 653.921 502.295 654.77C507.955 654.883 510.838 656.657 510.727 662.787C510.236 689.997 514.608 686.919 487.99 686.961C407.401 687.087 326.813 686.998 246.225 687.027C239.857 687.029 233.521 686.9 227.265 685.566C207.588 681.371 195.754 666.977 195.74 646.805C195.654 526.938 195.849 407.07 195.352 287.205C195.273 268.223 208.029 251.188 226.072 247.687C246.461 243.73 265.398 252.977 272.481 271.917C275.451 279.857 279.885 281.384 287.337 281.369C376.878 281.179 466.42 281.221 556.828 281.202ZM268.243 623.363C268.325 511.113 268.44 398.863 268.421 286.613C268.42 278.906 265.379 271.968 260.435 266.02C251.839 255.68 237.394 251.496 225.249 255.703C210.31 260.879 202.425 272.652 202.406 290.714C202.287 399.504 202.253 508.295 202.274 617.086C202.275 619.702 200.962 622.854 204.125 625.092C224.613 609.554 245.301 608.951 266.148 624.343C266.468 624.579 267.213 624.24 268.243 623.363ZM335.86 288.781C318.828 288.791 301.791 289.037 284.766 288.704C277.025 288.552 274.792 291.468 275.307 299.069C275.836 306.871 280.36 306.637 285.906 306.635C426.204 306.598 566.501 306.629 706.799 306.654C721.053 306.657 721.294 306.877 721.308 321.142C721.363 376.566 721.357 431.989 721.499 487.412C721.509 491.202 720.075 495.5 723.52 498.717C739.889 493.664 739.892 493.664 739.894 477.559C739.899 422.135 739.905 366.711 739.905 311.287C739.905 291.132 737.583 288.753 717.782 288.754C591.053 288.757 464.323 288.771 335.86 288.781ZM323.728 661.452C296.896 661.43 270.062 661.251 243.231 661.483C235.467 661.551 232.036 658.452 232.219 650.777C232.377 644.145 232.29 637.505 232.191 630.871C232.048 621.359 229.366 619.688 220.502 623.445C210.147 627.835 201.776 638.866 202.482 648.86C203.356 661.213 209.399 670.591 220.855 676.179C228.172 679.748 235.949 679.536 243.731 679.533C326.248 679.496 408.765 679.446 491.282 679.395C493.301 679.394 495.32 679.326 497.339 679.298C501.948 679.234 503.932 676.907 504.215 672.297C504.763 663.384 503.052 661.428 493.381 661.425C437.407 661.413 381.434 661.439 323.728 661.452Z" fill="#7C877F"/>
<path d="M765.081 504.694C777.173 504.73 788.436 504.905 799.696 504.755C806.379 504.666 812.834 505.654 818.519 499.132C822.103 495.02 829.565 496.553 834.975 498.684C839.808 500.588 838.227 505.586 838.253 509.42C838.396 530.209 838.461 551.001 838.304 571.79C838.274 575.81 840.514 581.334 835.15 583.301C829.464 585.386 822.438 586.525 817.75 582.33C813.468 578.498 809.31 578.089 804.411 578.126C798.636 578.17 792.86 578.127 787.085 578.177C772.606 578.301 766.017 584.946 765.986 599.409C765.959 612.334 765.774 612.541 753.122 612.584C740.127 612.629 727.132 612.597 714.138 612.68C711.271 612.699 707.551 612.584 707.39 616.387C707.221 620.357 710.926 620.287 713.806 620.293C731.71 620.332 749.613 620.299 767.517 620.304C770.214 620.305 772.525 619.809 774.309 617.383C778.985 611.025 791.429 608.302 798.554 611.671C801.888 613.247 801.961 616.053 801.962 618.941C801.969 648.386 801.891 677.83 801.945 707.275C801.954 712.609 799.895 715.744 794.311 715.119C786.925 714.293 777.917 718.994 773.159 708.564C771.973 705.964 767.964 706.769 765.078 706.804C748.91 707.001 732.736 707.517 716.578 707.205C709.241 707.063 705.72 708.973 706.383 716.854C706.865 722.589 706.596 728.399 706.445 734.17C706.322 738.851 707.625 741.747 712.216 744.473C720.698 749.508 716.523 758.544 716.258 765.759C716.01 772.529 709.459 770.581 705.224 770.605C676.926 770.765 648.626 770.757 620.327 770.66C616.003 770.646 609.829 772.316 609.347 765.576C608.827 758.306 604.796 749.465 613.411 744.374C617.602 741.897 619.203 739.34 619.114 734.906C618.976 727.979 618.921 721.047 618.959 714.119C618.987 709.057 616.518 706.647 611.557 706.699C591.926 706.903 572.295 707.092 552.667 707.422C551.074 707.448 548.638 708.03 548.049 709.132C542.144 720.169 532.267 713.909 524.15 714.599C520.773 714.886 519.862 711.273 519.861 708.182C519.853 678.151 519.892 648.121 519.852 618.091C519.845 613.441 522.171 611.138 526.572 610.784C530.02 610.506 533.489 610.429 536.951 610.37C541.969 610.284 544.256 607.754 544.244 602.785C544.178 574.776 544.158 546.767 544.123 518.758C544.12 516.335 543.696 513.778 541.333 512.828C532.507 509.278 535.659 501.841 535.841 495.672C535.97 491.299 539.968 490.512 543.581 490.499C564.372 490.423 585.162 490.465 605.953 490.428C610.247 490.421 613.632 491.991 613.917 496.538C614.26 502.003 616.917 508.953 609.869 511.815C604.479 514.004 604.171 517.504 604.22 522.015C604.506 547.985 604.696 573.957 605.023 599.928C605.171 611.708 604.372 612.649 592.367 612.703C579.662 612.76 566.956 612.732 554.25 612.821C551.386 612.841 547.762 612.72 547.972 616.825C548.144 620.168 551.42 620.249 554.036 620.252C573.094 620.277 592.152 620.249 611.21 620.219C613.238 620.215 615.259 620.096 616.881 618.586C621.428 614.353 619.004 590.797 613.529 587.875C603.977 582.776 608.779 574.067 608.477 566.961C608.221 560.95 613.782 560.116 618.587 560.105C623.586 560.094 625.14 557.402 625.093 552.989C624.779 523.546 624.48 494.102 624.158 464.659C624.131 462.237 623.483 459.844 621.191 458.765C612.581 454.713 615.322 447.138 615.635 440.56C615.834 436.394 619.266 435.001 623.125 434.998C647.092 434.981 671.059 434.967 695.027 434.993C698.683 434.997 702.71 435.688 702.639 440.139C702.546 446.067 706.292 453.311 699.239 457.503C695.477 459.739 693.799 462.197 693.813 466.369C693.913 495.532 693.942 524.696 694.028 553.859C694.034 555.777 693.821 557.898 696.925 559.778C706.261 525.102 728.138 505.957 765.081 504.694ZM700.031 727.305C700.039 721.531 700.394 715.731 699.967 709.989C699.403 702.386 702.574 699.82 710.04 699.969C728.221 700.333 746.419 699.862 764.601 700.204C771.984 700.343 775.001 697.876 774.84 690.23C774.469 672.627 774.432 655.005 774.853 637.404C775.041 629.515 772.27 626.584 764.341 626.757C745.872 627.159 727.386 626.741 708.914 627.064C702.21 627.181 699.49 624.856 699.883 618.038C700.297 610.845 699.851 603.607 699.984 596.392C700.081 591.136 698.052 588.13 692.487 588.125C673.145 588.107 653.803 588.079 634.461 588.034C629.146 588.021 626.457 590.459 626.539 595.933C626.639 602.571 626.211 609.233 626.628 615.846C627.139 623.937 624.174 627.22 615.722 627.049C596.101 626.651 576.458 627.326 556.837 626.929C549.141 626.773 546.726 629.496 546.888 636.962C547.271 654.564 547.324 672.189 546.855 689.787C546.638 697.928 549.836 700.335 557.552 700.189C577.177 699.818 596.817 700.246 616.444 699.919C623.756 699.797 627.132 702.189 626.763 709.849C626.374 717.913 626.986 726.025 626.613 734.09C626.276 741.358 629.482 743.75 636.413 743.63C652.865 743.344 669.324 743.527 685.78 743.484C699.942 743.448 699.942 743.425 700.031 727.305ZM706.504 597.425C706.195 603.089 709.266 605.096 714.504 605.061C725.76 604.983 737.026 604.741 748.268 605.12C755.88 605.377 758.924 602.805 759.275 594.763C759.91 580.225 767.704 572.667 782.08 571.499C790.405 570.823 798.796 570.819 807.159 570.786C813.14 570.763 816.274 568.537 816.184 562.1C815.99 548.25 815.968 534.392 816.184 520.543C816.287 513.946 813.02 512.081 807.061 512.162C790.901 512.379 774.729 512.019 758.578 512.466C735.684 513.098 713.53 530.51 707.044 552.369C705.925 556.143 704.793 560.168 710.41 561.056C716.268 561.983 717.225 566.112 716.693 570.593C716.007 576.367 720.186 583.891 711.871 587.275C707.649 588.994 706.236 591.841 706.504 597.425ZM686.228 548.607C686.217 521.768 686.064 494.928 686.294 468.091C686.354 461.119 683.96 458.041 676.772 458.231C664.947 458.543 653.106 458.484 641.277 458.291C634.875 458.186 631.798 460.344 631.858 467.309C632.098 495.299 632.062 523.293 631.894 551.284C631.856 557.556 634.383 560.281 640.573 560.233C652.693 560.138 664.817 560.074 676.933 560.303C684.144 560.439 686.919 557.064 686.228 548.607ZM580.118 605.125C583.578 605.072 587.038 604.972 590.498 604.98C595.526 604.991 597.799 602.546 597.787 597.516C597.728 571.562 597.73 545.609 597.77 519.655C597.777 514.59 595.408 512.294 590.379 512.331C579.998 512.409 569.616 512.416 559.234 512.35C554.17 512.317 551.803 514.773 551.819 519.73C551.902 545.683 552.008 571.636 552.05 597.589C552.058 602.59 554.376 605.062 559.385 605.061C565.73 605.06 572.074 605.104 580.118 605.125ZM526.363 624.667C526.314 649.698 526.279 674.728 526.205 699.758C526.191 704.388 526.486 708.51 532.743 708.675C538.974 708.839 540.572 705.48 540.544 699.978C540.417 675.523 540.459 651.068 540.423 626.612C540.417 623.081 540.383 619.262 535.97 618.383C531.796 617.552 527.757 617.914 526.363 624.667ZM635.747 764.188C657.374 764.188 679.002 764.2 700.63 764.178C705.337 764.173 710.409 764.5 710.234 757.495C710.064 750.695 705.059 750.89 700.348 750.89C680.739 750.891 661.13 750.93 641.521 750.991C635.178 751.011 628.834 751.065 622.494 751.248C618.32 751.369 616.246 753.629 616.276 757.884C616.307 762.283 618.695 764.086 622.802 764.131C626.55 764.173 630.299 764.171 635.747 764.188ZM682.454 567.797C662.817 567.804 643.181 567.82 623.544 567.811C619.156 567.809 616.278 569.342 616.318 574.297C616.354 578.754 618.874 580.438 622.943 580.441C649.509 580.456 676.076 580.473 702.643 580.437C706.78 580.432 709.104 578.376 709.048 574.028C708.992 569.602 706.394 567.898 702.371 567.851C696.308 567.78 690.244 567.811 682.454 567.797ZM782.162 634.069C782.13 655.993 782.09 677.917 782.073 699.84C782.069 704.177 781.35 708.786 788.218 708.736C794.915 708.687 795.456 704.551 795.448 699.495C795.412 677.283 795.451 655.07 795.452 632.858C795.452 629.974 795.441 627.088 795.352 624.206C795.218 619.912 792.859 618.037 788.664 618.108C784.888 618.172 782.652 619.92 782.395 623.75C782.203 626.624 782.235 629.514 782.162 634.069ZM822.598 528.239C822.609 542.319 822.603 556.399 822.645 570.479C822.654 573.567 823.384 576.505 827.169 576.538C830.372 576.566 831.608 574.099 831.618 571.261C831.685 551.148 831.694 531.034 831.644 510.921C831.637 508.081 830.452 505.68 827.177 505.72C823.924 505.76 822.835 508.178 822.759 511.009C822.622 516.178 822.645 521.352 822.598 528.239ZM634.368 442.585C630.591 443.459 623.994 440.664 624.19 447.014C624.358 452.438 630.551 450.49 634.219 450.535C652.065 450.752 669.914 450.727 687.761 450.634C690.982 450.617 695.715 451.479 695.405 446.259C695.146 441.883 690.799 442.703 687.811 442.682C670.539 442.566 653.266 442.597 634.368 442.585ZM595.374 504.88C598.878 504.037 605.089 506.787 604.954 501.013C604.845 496.338 598.959 497.942 595.527 497.906C581.444 497.761 567.356 497.836 553.274 498.07C550.15 498.122 546.145 496.853 543.441 504.024C560.736 505.711 577.3 504.474 595.374 504.88Z" fill="#7C877F"/>
<path d="M355.649 438.787C345.672 419.176 343.619 398.916 348.38 378.508C353.516 356.492 374.436 344.334 400.174 346.594C422.428 348.549 439.351 364.748 441.131 386.57C442.406 402.215 441.062 417.69 435.025 432.444C432.475 438.675 428.513 443.903 423.869 448.76C417.304 455.627 418.673 460.956 427.646 464.199C434.419 466.648 441.381 468.614 448.042 471.327C465.77 478.55 476.492 496.655 474.733 515.45C474.297 520.107 471.91 522.189 467.524 522.279C462.333 522.387 457.139 522.332 451.947 522.336C409.535 522.365 367.123 522.404 324.711 522.408C312.356 522.409 311.193 520.242 312.493 508.008C314.804 486.252 326.542 473.447 347.36 468.178C351.825 467.048 356.278 465.735 360.567 464.07C368.27 461.08 369.539 455.52 364.249 449.301C361.453 446.014 358.732 442.664 355.649 438.787ZM353.047 392.038C353.187 411.411 355.248 430.055 370.104 444.794C379.309 453.925 376.329 466.145 364.04 470.706C357.557 473.112 350.921 475.136 344.277 477.068C330.151 481.177 323.087 491.224 320.341 505.009C319.062 511.428 321.057 515.115 328.287 514.774C333.185 514.543 338.102 514.673 343.01 514.672C381.411 514.661 419.813 514.557 458.214 514.738C465.967 514.775 468.236 512.513 466.582 504.411C463.762 490.594 456.388 481.479 443.176 476.95C436.084 474.518 428.812 472.54 421.886 469.707C411.889 465.618 408.478 453.434 415.908 446.448C430.165 433.044 433.7 415.725 434.689 397.678C436 373.749 423.146 357.756 401.326 354.452C375.456 350.535 358.793 363.015 353.047 392.038Z" fill="#7C877F"/>
<path d="M411.311 614.084C411.156 612.94 410.949 611.8 410.855 610.651C410.496 606.262 410.17 601.759 414.527 598.98C417.141 597.313 420.309 597.208 422.638 599.311C426.32 602.634 427.353 607.136 426.525 611.966C426.199 613.869 425.439 615.697 424.54 618.677C445.146 618.23 464.945 620.702 484.731 617.561C485.297 617.471 485.831 617.181 486.396 617.097C498.755 615.264 498.755 615.268 504.358 609.279C507.968 613.172 509.712 630.7 506.983 635.091C506.12 636.481 505.014 637.135 503.421 636.791C501.28 636.329 500.931 634.574 500.848 632.82C500.566 626.885 497.202 625.921 492.654 628.174C486.616 631.166 481.68 626.391 475.953 626.43C431.781 626.726 387.606 626.569 343.431 626.526C336.387 626.519 329.618 630.036 322.229 627.155C318.604 625.741 316.661 629.026 316.572 632.812C316.52 634.975 315.972 637.117 313.243 636.823C310.732 636.553 310.266 634.354 310.242 632.249C310.176 626.476 310.161 620.702 310.223 614.93C310.245 612.915 310.305 610.611 312.881 610.119C315.632 609.593 316.243 611.647 316.545 613.784C316.971 616.804 318.623 618.415 321.74 618.437C350.132 618.638 378.523 618.854 406.915 619.027C408.634 619.038 410.501 619.094 412.043 618.482C414.998 617.311 412.76 615.86 411.601 614.294C411.276 614.035 411.311 614.084 411.311 614.084Z" fill="#7C877F"/>
<path d="M323.539 563.32C330.89 559.797 336.813 565.012 343.368 564.972C394.422 564.66 445.478 564.761 496.533 564.831C504.099 564.841 511.242 560.34 519.21 563.481C522.368 564.726 523.046 561.031 523.568 558.425C523.939 556.571 525.038 555.235 527.089 555.314C528.798 555.379 529.736 556.689 529.717 558.191C529.589 568.642 531.013 579.204 528.912 589.867C521.843 588.922 523.409 584.288 523.4 581.046C523.381 574.61 520.637 571.217 514.424 573.639C507.868 576.195 503.015 571.151 496.91 571.286C445.589 572.424 394.258 572.344 342.928 571.522C335.687 571.406 328.792 575.359 321.124 572.776C317.389 571.518 316.862 575.438 316.709 578.486C316.532 582.03 317.432 585.885 314.563 589.007C308.415 584.015 308.292 561.162 314.091 555.676C317.758 557.357 315.666 565.943 323.539 563.32Z" fill="#7C877F"/>
<path d="M662.41 423.593C613.044 423.598 564.522 423.621 516 423.564C512.122 423.559 507.793 424.49 505 420.335C505.54 415.633 509.226 416.135 512.204 416.128C565.925 416.013 619.646 415.969 673.368 415.963C676.171 415.962 679.942 415.658 680.099 419.579C680.262 423.656 676.4 423.278 673.648 423.456C670.195 423.679 666.719 423.561 662.41 423.593Z" fill="#7C877F"/>
<path d="M598.414 397.504C622.079 397.476 644.877 397.439 667.676 397.42C669.694 397.418 671.744 397.326 673.724 397.633C676.413 398.05 680.333 397.651 679.927 401.836C679.599 405.219 676.166 404.837 673.638 404.855C662.383 404.933 651.128 404.927 639.873 404.925C598.605 404.916 557.337 404.937 516.069 404.813C512.311 404.802 507.834 406.379 504.969 401.565C507.68 396.28 512.867 397.688 517.032 397.653C543.869 397.429 570.708 397.516 598.414 397.504Z" fill="#7C877F"/>
<path d="M622.69 360.362C639.706 360.336 655.857 360.204 672.005 360.38C675.014 360.413 680.12 358.594 680.093 363.941C680.071 368.327 675.366 367.376 672.497 367.374C619.15 367.348 565.802 367.204 512.455 367.026C509.438 367.016 505.801 367.618 504.832 360.622C524.389 360.069 543.703 360.455 562.991 360.381C582.602 360.306 602.213 360.363 622.69 360.362Z" fill="#7C877F"/>
<path d="M529.106 379.409C576.735 379.363 623.501 379.316 670.268 379.28C672.574 379.278 674.89 379.263 677.184 379.463C679.139 379.632 680.363 380.756 680.209 382.885C680.086 384.594 678.903 385.454 677.383 385.627C675.383 385.854 673.353 385.88 671.336 385.879C619.374 385.876 567.411 385.887 515.448 385.775C511.966 385.767 507.843 387.158 504.207 381.614C512.267 377.434 520.559 380.32 529.106 379.409Z" fill="#7C877F"/>
<path d="M558.56 434.893C590.854 434.891 590.854 434.891 594.275 438.841C587.233 442.767 511.016 442.463 503.633 437.369C513.222 433.016 522.322 435.421 530.956 434.998C539.848 434.563 548.779 434.897 558.56 434.893Z" fill="#7C877F"/>
<path d="M424.928 561.175C422.078 558.405 421.286 555.37 420.367 550.852C419.198 555.342 422.07 559.866 417.892 561.76C414.794 563.164 411.256 563.403 407.818 560.604C408.804 555.615 414.728 550.366 407.633 546.396C409.279 542.109 412.255 541.74 414.503 542.612C419.02 544.363 423.037 544.151 427.589 542.623C431.34 541.364 434.029 544.247 435.891 547.353C438.14 551.103 438.278 554.991 435.884 558.738C433.307 562.77 429.715 563.516 424.928 561.175Z" fill="#7C877F"/>
<path d="M411.265 614.011C407.735 619.241 403.245 618.345 398.154 616.2C397.481 611.195 405.12 606.059 397.547 602.05C399.618 597.906 402.612 597.254 405.805 598.59C408.955 599.908 409.056 602.983 408.8 606.003C408.571 608.706 406.835 611.773 410.865 613.887C411.314 614.084 411.279 614.035 411.265 614.011Z" fill="#7C877F"/>
<path d="M773.923 516.432C786.244 517.556 798.243 513.534 810.356 518.929C803.26 524.273 769.515 523.883 764.129 519.134C766.101 514.857 769.969 516.739 773.923 516.432Z" fill="#7C877F"/>
<path d="M634.436 495.932C634.512 486.785 634.498 478.466 634.722 470.153C634.79 467.643 635.013 464.417 638.574 464.569C642.059 464.717 642.079 467.905 642.102 470.443C642.201 481.628 642.222 492.815 642.138 504C642.117 506.768 642.451 510.641 638.622 510.75C634.079 510.878 634.837 506.604 634.544 503.642C634.319 501.368 634.46 499.057 634.436 495.932Z" fill="#7C877F"/>
<path d="M636.183 530.111C635.43 528.222 634.775 526.861 634.787 525.506C634.817 522.277 633.697 517.995 638.293 517.188C641.724 516.585 642.322 519.974 642.061 522.48C641.695 525.985 644.336 531.957 636.183 530.111Z" fill="#7C877F"/>
</svg>
