<svg width="1030" height="1033" viewBox="0 0 1030 1033" fill="none" xmlns="http://www.w3.org/2000/svg">
<path d="M867.688 872.515C803.725 935.243 730.133 981.007 643.279 1001.37C446.974 1047.4 278.303 997.579 141.088 848.913C76.128 778.532 37.9042 693.859 22.3638 599.732C6.63407 504.458 15.684 410.763 53.5714 321.693C109.33 190.609 204.558 98.4256 337.576 46.9748C408.19 19.6615 481.962 10.5055 557.566 16.9988C667.711 26.4587 764.332 67.3504 847.071 140.852C939.467 222.934 993.912 325.87 1010.1 447.691C1029.2 591.513 992.341 721.009 901.655 834.657C891.234 847.716 879.363 859.617 867.688 872.515ZM101.205 784.822C101.721 785.596 102.222 786.379 102.755 787.141C217.121 950.538 373.106 1026.07 572.401 1006.99C663.033 998.312 744.67 964.511 816.138 907.712C935.892 812.539 999.545 687.893 1007.47 535.513C1011.2 463.808 998.109 394.33 970.873 327.636C898.161 149.584 723.744 25.2173 521.424 22.5254C469.72 21.8375 418.901 28.9463 369.422 44.5757C257.927 79.7947 169.479 146.035 104.838 243.257C57.2491 314.833 30.7541 393.89 24.4917 479.901C21.3189 523.479 23.8921 566.494 31.6649 609.28C43.0458 671.928 66.6676 729.843 101.205 784.822Z" fill="#7C877F" stroke="#7C877F" stroke-width="29"/>
<path d="M418.08 45.9268C465.452 36.638 512.377 34.4215 559.662 38.4551C625.582 44.0784 687.981 62.1343 745.45 94.7529C877.225 169.546 959.261 281.499 985.669 430.92C1012.41 582.217 973.942 717.715 873.748 833.932C798.625 921.068 703.089 974.247 588.595 990.82C456.051 1010.01 334.533 981.607 227.423 900.379C129.082 825.801 68.1231 726.732 45.2295 605.285C24.5215 495.433 39.027 389.733 91.6104 291.007C155.846 170.402 255.017 91.4076 386.538 53.5703C396.674 50.6542 407.066 48.5309 418.042 45.9355L418.062 45.9307L418.08 45.9268ZM944.5 325.096C862.36 138.242 665.087 22.1912 453.309 49.7656C386.825 58.4222 324.457 80.0068 267.946 116.354C132.092 203.732 58.86 329.039 46.9043 489.483C41.453 562.64 54.1136 633.842 83.7852 701.226C138.487 825.452 228.782 912.628 357.814 960.808C433.802 986.846 511.569 994.546 590.847 981.564C698.529 963.932 789.62 914.604 862.137 833.119C951.882 732.274 992.227 613.911 982.948 478.921C979.267 425.357 966.088 374.204 944.5 325.096Z" fill="#7C877F" stroke="#7C877F" stroke-width="2"/>
<path d="M545.235 190.177C583.358 189.909 620.552 189.688 657.744 189.35C679.625 189.151 697.24 196.365 707.043 217.299C710.236 224.118 711.541 231.348 711.511 238.942C711.385 271.18 711.494 303.42 711.439 335.658C711.396 360.787 697.437 378.909 672.678 384.215C664.717 385.921 662.433 389.304 662.878 396.685C663.306 403.789 663.026 410.939 662.969 418.068C662.944 421.204 662.803 424.551 659.428 426.05C656.083 427.536 653.506 425.478 651.086 423.43C639.021 413.217 626.567 403.421 615.034 392.64C607.985 386.051 600.301 384.78 591.288 384.83C563.2 384.987 563.27 384.778 563.13 356.907C563.064 343.893 563.529 330.79 562.181 317.891C560.718 303.887 569.277 296.239 577.97 288.259C581.336 285.168 584.188 287.021 586.661 289.925C590.681 294.643 594.85 299.238 598.742 304.058C602.785 309.064 606.053 309.07 610.718 304.244C625.577 288.874 640.842 273.896 656.066 258.884C660.185 254.822 663.972 249.197 670.856 254.257C677.94 233.47 676.41 231.897 652.661 235.07C655.522 242.4 650.852 246.867 646.268 251.461C634.667 263.09 622.916 274.582 611.677 286.554C606.39 292.186 602.413 291.301 598.065 286.004C594.329 281.453 590.432 277.028 586.826 272.377C582.982 267.417 579.485 267.76 575.474 272.229C571.816 276.304 568.796 281.125 563.834 283.65C559.212 282.807 559.071 278.797 557.728 275.905C547.701 254.312 531.124 243.15 507.059 243.57C499.312 243.705 491.544 243.276 483.815 243.674C474.89 244.134 473.39 239.146 474.084 231.903C476.171 210.097 495.4 191.417 517.342 190.346C526.311 189.908 535.316 190.21 545.235 190.177ZM704.522 332.765C704.52 302.077 704.714 271.388 704.453 240.702C704.25 216.782 687.641 197.64 665.866 197.425C617.514 196.948 569.151 197.079 520.796 197.443C503.518 197.573 488.424 209.541 483.615 224.991C481.558 231.603 483.118 235.195 490.625 235.173C499.909 235.146 509.145 235.715 518.425 236.494C531.255 237.572 542.025 249.963 556.179 243.153C556.843 242.833 558.382 244.075 559.388 244.77C564.96 248.622 568.376 246.449 569.315 240.552C570.668 232.059 576.901 231.691 583.185 231.533C590.124 231.359 598.053 229.605 599.966 239.941C600.627 243.515 604.009 246.251 606.683 244.108C615.867 236.747 621.529 243.281 627.547 248.492C630.948 251.437 633.83 253.475 637.711 249.248C640.873 245.803 644.904 243.148 640.239 237.691C634.638 231.139 638.691 228.426 645.251 227.576C654.455 226.383 663.68 225.351 672.902 224.302C679.256 223.58 682.191 226.41 681.744 232.851C681.08 242.43 680.728 252.036 679.858 261.595C679.102 269.906 676.906 270.805 670.25 265.847C667.715 263.96 665.164 261.15 662.21 264.13C654.859 271.546 644 276.812 646.138 290.323C646.895 295.106 645.62 299.818 639.739 301.092C633.125 302.525 632.306 306.054 636.178 311.009C640.936 317.098 636.995 321.627 633.38 325.749C629.333 330.363 626.201 337.747 617.827 334.326C610.829 331.467 607.077 333.832 605.77 340.823C604.929 345.32 601.8 346.998 597.912 347.455C587.671 348.661 577.133 350.237 574.144 336.45C569.253 337.935 570.231 341.156 570.174 343.738C570.042 349.625 570.152 355.517 570.16 361.406C570.18 376.961 570.829 378.365 586.35 377.042C601.672 375.736 614.093 379.381 624.784 390.783C631.524 397.972 639.72 403.804 647.332 410.162C649.119 411.654 650.689 414.05 654.57 412.424C654.966 404.201 655.613 395.61 655.715 387.012C655.786 380.941 658.135 378.738 664.384 377.821C689.77 374.092 702.529 359.907 704.522 332.765ZM613.224 271.438C619.538 270.19 620.415 264.302 622.825 259.869C624.484 256.816 622.065 254.674 619.967 252.773C617.833 250.839 615.482 249.077 612.508 250.789C602.677 256.448 596.599 252.53 591.696 243.503C588.536 237.688 580 238.014 577.808 244.092C575.947 249.254 572.732 252.236 568.293 254.785C563.415 257.585 559.163 255.27 552.602 251.477C557.332 258.985 560.391 263.842 563.379 268.584C567.53 267.91 569.503 265.33 571.943 263.573C582.434 256.019 593.246 256.117 603.551 264.049C606.483 266.305 609.234 268.796 613.224 271.438ZM607.926 325.351C611.414 323.237 614.829 323.451 618.463 325.221C622.011 326.95 624.255 324.413 626.309 322.058C628.432 319.624 630.284 316.776 627.527 313.879C624.814 311.029 625.495 306.971 623.538 303.969C622.716 304.18 621.942 304.137 621.608 304.5C609.026 318.189 594.396 325.424 575.424 319.488C573.131 318.771 571.031 319.392 570.501 322.179C570.034 324.635 571.254 326.442 573.359 327.446C577.194 329.275 581.85 330.064 582.952 335.171C583.739 338.815 585.948 340.406 589.547 340.17C593.309 339.924 597.469 339.674 598.307 335.063C599.225 330.011 602.913 328.088 607.926 325.351ZM592.616 311.288C592.249 307.287 589.053 305.027 586.844 302.222C585.074 299.973 583.315 296.297 579.646 298.272C576.525 299.953 573.094 302.377 573.215 306.505C573.322 310.172 576.917 311.103 579.723 312.067C583.767 313.457 587.965 314.294 592.616 311.288Z" fill="#7C877F"/>
<path d="M207.225 826.922C203.942 819.723 205.819 812.863 205.803 806.117C205.741 779.166 205.371 752.202 206.106 725.27C206.652 705.212 212.044 686.087 222.403 668.744C234.583 648.353 247.817 643.368 270.795 648.854C304.199 656.829 337.613 664.806 371.189 672.007C392.378 676.551 406.963 688.931 415.88 707.759C432.548 742.946 443.552 779.934 448.273 818.688C449.175 826.095 446.392 829.826 438.564 829.637C428.653 829.398 418.696 829.007 408.827 829.68C399.333 830.328 394.318 826.396 392.325 817.446C391.596 814.168 390.24 811.03 389.038 807.431C388.421 808.18 387.821 808.569 387.82 808.96C387.748 830.779 388.23 829.301 366.455 829.307C317.802 829.321 269.149 829.303 220.496 829.268C216.19 829.264 211.774 829.821 207.225 826.922ZM212.928 724.772C212.894 752.968 212.827 781.164 212.841 809.361C212.846 820.681 213.402 821.227 225.177 821.257C254.613 821.33 284.05 821.322 313.486 821.335C332.697 821.344 351.909 821.204 371.117 821.4C378.32 821.474 381.044 818.566 380.697 811.32C380.107 798.96 380.15 786.568 380.04 774.188C380.011 770.975 379.506 767.371 384.462 765.005C389.691 774.294 390.352 784.604 393.346 794.108C403.76 827.166 395.218 821.208 431.066 821.761C438.41 821.875 441.495 818.42 440.191 811.413C433.655 776.292 424.053 742.035 408.329 709.879C401.036 694.965 389.407 683.978 372.313 680.081C335.209 671.623 298.091 663.216 261.107 654.26C252.358 652.141 245.982 655.107 239.839 660.19C233.508 665.428 229.486 672.439 225.713 679.6C218.53 693.235 215.479 708.067 212.928 724.772Z" fill="#7C877F"/>
<path d="M411.288 251.926C442.585 251.911 472.952 251.757 503.318 251.918C532.519 252.073 552.704 269.999 553.762 299.051C554.945 331.527 555.025 364.119 553.727 396.586C552.518 426.83 533.023 443.72 502.821 443.782C483.92 443.82 465.017 444.218 446.12 443.995C438.826 443.909 433.144 446.119 427.691 450.961C416.809 460.625 405.442 469.746 394.193 478.989C391.379 481.301 388.45 484.455 384.357 482.842C379.927 481.097 381.072 476.722 380.863 473.121C380.81 472.194 380.863 471.262 380.844 470.333C380.693 462.91 382.24 454.906 379.953 448.211C377.065 439.752 366.927 443.49 360.3 440.775C342.421 433.45 330.705 417.286 330.639 397.575C330.529 365.039 330.506 332.503 330.632 299.967C330.739 272.554 349.274 253.308 376.896 252.085C388.03 251.592 399.203 251.953 411.288 251.926ZM536.137 273.602C527.648 262.989 516.222 259.801 503.143 259.894C461.933 260.187 420.721 260.163 379.511 260.369C355.381 260.489 338.116 276.817 337.756 300.826C337.278 332.735 337.237 364.661 337.725 396.569C338.06 418.434 355.005 435.157 376.892 435.794C384.991 436.03 387.834 439.314 387.811 447.054C387.788 454.943 386.783 462.96 388.775 470.976C392.465 471.198 394.256 468.827 396.301 467.129C406.075 459.015 415.938 450.998 425.463 442.6C430.646 438.03 436.213 435.9 443.157 435.976C463.605 436.198 484.058 436.051 504.508 435.985C529.698 435.903 546.343 419.432 546.47 394.127C546.62 364.071 546.252 334.012 546.588 303.959C546.712 292.871 543.689 283.257 536.137 273.602Z" fill="#7C877F"/>
<path d="M641.576 803.047C641.232 804.42 641.065 805.336 640.835 806.235C636.28 824.106 636.278 824.102 617.748 824.081C610 824.073 602.235 823.763 594.509 824.174C586.301 824.609 582.898 822.057 583.315 813.039C584.623 784.752 594.236 758.533 602.403 731.957C607.51 715.336 613.832 699.248 625.56 685.785C634.003 676.094 643.99 669.467 656.569 666.591C693.367 658.176 730.171 649.776 766.903 641.075C783.576 637.125 795.208 644.572 804.443 657.036C817.154 674.193 822.711 694.214 824.844 715.053C828.198 747.801 825.819 780.698 826.35 813.525C826.493 822.394 821.99 824.284 814.114 824.255C761.738 824.061 709.361 824.204 656.984 824.198C643.389 824.196 643.204 823.946 643.166 809.924C643.159 807.445 643.206 804.965 643.221 802.486C643.223 802.178 643.304 801.707 643.143 801.586C641.748 800.545 642.207 802.248 641.576 803.047ZM818.525 789.11C818.378 765.558 818.975 741.971 817.865 718.465C816.857 697.097 810.442 677.035 797.012 659.876C789.175 649.863 779.711 645.295 766.144 648.736C731.958 657.408 697.624 665.594 663.106 672.814C642.999 677.02 629.387 688.653 621.143 706.18C606.18 737.988 597.054 771.764 590.867 806.327C589.666 813.04 592.54 816.271 599.434 816.128C606.559 815.981 613.694 815.895 620.814 816.114C627.403 816.317 631.025 813.71 632.589 807.029C635.691 793.777 639.436 780.675 642.909 767.509C643.652 764.693 643.351 761.046 647.905 761.177C651.094 763.89 650.022 767.52 650.058 770.754C650.185 782.219 650.068 793.687 650.108 805.153C650.148 816.523 650.708 817.129 662.357 817.137C705.737 817.167 749.118 817.289 792.498 817.069C823.106 816.913 818.01 820.804 818.525 789.11Z" fill="#7C877F"/>
<path d="M243.264 575.887C240.321 549.888 245.286 526.71 262.871 507.793C285.767 483.162 314.492 474.999 346.672 483.636C379.133 492.349 399.296 514.543 406.038 547.423C415.051 591.381 387.141 634.447 344.777 643.678C298.408 653.783 256.257 628.214 244.79 583.017C244.258 580.92 243.803 578.803 243.264 575.887ZM270.774 510.968C245.35 539.065 242.59 576.109 263.65 606.595C284.187 636.322 324.017 646.767 356.933 631.054C390.399 615.079 407.164 578.357 397.507 543.409C383.649 493.257 318.497 466 270.774 510.968Z" fill="#7C877F"/>
<path d="M633.732 516.016C654.044 484.04 682.635 470.469 719.391 475.254C752.498 479.565 778.076 504.276 786.654 538.944C797.841 584.153 767.251 629.681 719.603 638.737C675.386 647.142 630.635 614.33 624.411 569.638C621.785 550.775 624.948 533.37 633.732 516.016ZM733.884 487.003C724.331 482.857 714.329 481.161 703.965 481.772C672.185 483.647 649.013 499.051 637.003 528.305C624.863 557.874 629.96 585.797 652.271 609.133C674.431 632.312 702.11 637.895 731.664 627.467C761.568 616.916 778.373 593.925 780.793 562.431C783.496 527.241 766.454 502.731 733.884 487.003Z" fill="#7C877F"/>
<path d="M388.991 369.133C403.393 367.08 410.063 355.783 418.55 347.078C426.356 339.071 433.291 331.959 432.559 317.992C431.553 298.77 451.652 284.759 469.568 288.657C477.279 290.334 478.331 292.924 473.655 299.358C471.292 302.608 468.753 305.769 465.986 308.677C462.595 312.239 461.986 315.247 466.097 318.812C470.009 322.204 472.92 321.816 476.313 318.041C480.585 313.287 484.155 307.716 489.915 304.551C501.688 314.836 499.241 336.232 485.258 346.585C479.165 351.096 472.315 354.129 464.529 353.403C457.98 352.792 453.407 355.384 449.266 360.243C444.253 366.126 438.698 371.555 433.263 377.068C427.778 382.632 423.442 388.255 422.383 396.78C421 407.909 410.684 415.37 399.185 415.752C388.53 416.106 378.688 409.146 375.9 399.285C372.376 386.818 376.717 376.371 388.991 369.133ZM384.546 385.494C381 395.971 385.144 404.705 394.889 407.292C403.547 409.59 413.444 403.424 414.47 393.696C415.323 385.605 419.006 379.959 424.53 374.643C430.105 369.281 435.446 363.635 440.482 357.764C447.578 349.493 454.902 344.035 467.237 344.755C481.522 345.589 491.382 331.518 487.51 319.081C479.461 320.56 479.127 338.6 466.106 329.141C461.145 325.537 454.601 322.425 452.872 316.515C450.371 307.965 462.2 305.142 463.093 297.159C448.636 296.83 437.372 309.725 440.389 324.236C441.873 331.376 440.086 336.038 435.516 340.818C427.169 349.547 418.905 358.364 410.863 367.373C406.826 371.894 402.785 375.488 396.205 375.956C391.079 376.32 386.85 379.155 385.234 384.52C385.234 384.52 385.288 384.447 384.546 385.494Z" fill="#7C877F"/>
<path d="M385.215 384.562C393.907 376.52 401.535 375.468 407.788 381.557C412.504 386.15 413.645 391.628 410.954 397.588C408.311 403.444 403.377 405.16 397.231 404.422C390.539 403.617 386.53 400.06 385.557 393.387C385.205 390.972 385.374 388.48 385.298 385.236C385.291 384.449 385.238 384.523 385.215 384.562ZM393.993 390.944C394.753 394.791 396.702 397.232 400.837 395.356C403.429 394.181 403.971 391.422 402.244 389.243C399.599 385.908 396.691 386.103 393.993 390.944Z" fill="#7C877F"/>
</svg>
