<svg width="595" height="419" viewBox="0 0 595 419" fill="none" xmlns="http://www.w3.org/2000/svg">
<path d="M457.262 7.85953C458.157 7.85382 459.051 7.84811 459.973 7.84222C461.448 7.84055 461.448 7.84055 462.954 7.83884C463.988 7.83387 465.023 7.82891 466.088 7.82379C469.522 7.80914 472.957 7.80236 476.391 7.79684C478.772 7.79109 481.154 7.78534 483.536 7.77957C488.536 7.76905 493.536 7.76322 498.537 7.75974C504.944 7.75425 511.351 7.73023 517.758 7.70176C522.68 7.68314 527.603 7.67793 532.525 7.6764C534.887 7.67337 537.249 7.66534 539.611 7.65221C542.917 7.63516 546.222 7.63703 549.528 7.64352C550.992 7.6297 550.992 7.6297 552.485 7.6156C557.733 7.64787 561.498 7.98917 566 11C570.01 16.2025 571.125 19.852 571.131 26.3294C571.135 27.3011 571.135 27.3011 571.138 28.2925C571.143 30.4781 571.142 32.6638 571.14 34.8495C571.143 36.4263 571.146 38.0031 571.149 39.58C571.158 43.9248 571.159 48.2695 571.16 52.6143C571.162 57.2953 571.169 61.9763 571.176 66.6573C571.19 76.8966 571.196 87.1359 571.2 97.3752C571.203 103.764 571.207 110.152 571.212 116.54C571.224 134.214 571.234 151.888 571.238 169.563C571.238 170.694 571.238 171.826 571.238 172.991C571.239 174.126 571.239 175.26 571.239 176.429C571.239 178.727 571.24 181.026 571.24 183.324C571.24 184.465 571.241 185.605 571.241 186.78C571.245 205.272 571.262 223.765 571.286 242.258C571.309 261.226 571.322 280.195 571.323 299.163C571.324 309.821 571.33 320.478 571.348 331.135C571.363 340.206 571.368 349.277 571.36 358.348C571.356 362.98 571.357 367.612 571.371 372.245C571.384 376.479 571.383 380.713 571.37 384.948C571.369 386.485 571.372 388.023 571.38 389.56C571.391 391.639 571.384 393.717 571.372 395.796C571.373 397.533 571.373 397.533 571.374 399.306C571.189 400.639 571.189 400.639 571 402C567.873 404.085 567.183 404.25 563.631 404.254C562.738 404.26 561.845 404.265 560.925 404.271C559.46 404.265 559.459 404.265 557.964 404.259C556.933 404.262 555.902 404.266 554.839 404.269C551.42 404.278 548.001 404.272 544.582 404.266C542.207 404.267 539.831 404.269 537.456 404.271C532.47 404.274 527.484 404.27 522.498 404.261C516.117 404.249 509.736 404.256 503.355 404.268C498.445 404.275 493.535 404.273 488.626 404.268C486.274 404.266 483.922 404.268 481.57 404.273C478.274 404.278 474.979 404.27 471.683 404.259C470.716 404.263 469.749 404.267 468.752 404.271C455.161 404.187 455.161 404.187 451.305 400.285C449.664 397.411 449.616 395.508 449.601 392.204C449.582 390.429 449.582 390.429 449.563 388.618C449.565 386.676 449.565 386.676 449.568 384.694C449.559 383.314 449.548 381.935 449.537 380.555C449.509 376.811 449.5 373.068 449.494 369.324C449.485 365.411 449.458 361.498 449.434 357.585C449.39 350.176 449.362 342.767 449.339 335.358C449.312 326.923 449.268 318.488 449.222 310.053C449.129 292.702 449.058 275.351 449 258C445.755 260.318 444.133 262.117 442.313 265.687C441.799 266.665 441.286 267.642 440.758 268.648C439.888 270.307 439.888 270.307 439 272C434.358 280.557 429.505 288.914 424.169 297.057C421.357 301.374 418.851 305.79 416.434 310.336C414.993 313.013 413.481 315.631 411.938 318.25C408.546 324.03 405.234 329.853 401.938 335.687C401.383 336.669 400.828 337.651 400.256 338.662C397.298 343.903 394.355 349.152 391.434 354.414C366.587 399.138 366.587 399.138 358 402C355.082 402.224 352.18 402.4 349.258 402.535C348.38 402.578 347.501 402.621 346.597 402.665C344.726 402.756 342.854 402.844 340.983 402.93C338.198 403.059 335.413 403.198 332.629 403.338C311.456 404.364 290.318 403.989 269.13 403.628C265.214 403.562 261.299 403.503 257.383 403.443C254.865 403.401 252.346 403.359 249.828 403.316C248.672 403.3 247.515 403.283 246.324 403.266C243.214 403.209 240.108 403.112 237 403C236.124 402.989 235.248 402.979 234.345 402.968C233.159 402.912 233.159 402.912 231.948 402.855C231.275 402.835 230.602 402.815 229.908 402.794C227.46 401.775 226.15 400.388 224.788 398.13C222.963 393.195 223.434 387.749 223.454 382.559C223.445 381.189 223.435 379.818 223.423 378.448C223.395 374.74 223.392 371.032 223.393 367.323C223.389 363.444 223.364 359.564 223.341 355.684C223.3 348.343 223.28 341.001 223.267 333.66C223.251 325.299 223.212 316.939 223.172 308.579C223.09 291.386 223.035 274.193 223 257C219.834 260.09 217.406 262.601 215.578 266.645C212.946 272.193 209.903 277.421 206.75 282.687C206.181 283.644 205.612 284.601 205.025 285.587C203.354 288.394 201.678 291.197 200 294C199.544 294.762 199.089 295.524 198.62 296.309C195.558 301.428 192.488 306.542 189.398 311.645C186.362 316.67 183.421 321.743 180.521 326.848C177.083 332.886 173.571 338.879 170.063 344.875C166.058 351.725 162.069 358.58 158.188 365.5C157.837 366.124 157.487 366.748 157.126 367.39C155.297 370.655 153.491 373.93 151.699 377.215C140.039 398.492 140.039 398.492 130 402C125.943 402.551 121.937 402.517 117.848 402.47C116.054 402.473 116.054 402.473 114.224 402.477C110.966 402.478 107.708 402.463 104.45 402.438C101.034 402.417 97.6173 402.418 94.2008 402.416C88.4704 402.409 82.7403 402.388 77.01 402.357C69.6545 402.316 62.2991 402.299 54.9435 402.289C48.6126 402.281 42.2817 402.264 35.9508 402.244C34.5932 402.24 33.2356 402.237 31.878 402.233C27.4202 402.222 22.9624 402.202 18.5047 402.177C17.3779 402.174 16.2511 402.172 15.0901 402.169C13.5489 402.158 13.5489 402.158 11.9765 402.147C11.0826 402.143 10.1887 402.139 9.26775 402.134C7.00001 402 7.00002 402 4.00002 401C1.32953 391.39 10.4745 380.247 15.1211 372.023C21.1344 361.48 27.346 351.048 33.6172 340.656C34.2117 339.67 34.2117 339.67 34.8181 338.665C35.8431 336.969 36.8725 335.275 37.9024 333.582C40.1893 329.744 42.2978 325.811 44.427 321.884C46.9434 317.27 49.5337 312.698 52.125 308.125C52.682 307.141 53.2389 306.157 53.8128 305.144C57.6788 298.32 61.5529 291.501 65.4375 284.687C66.1445 283.445 66.1445 283.445 66.8657 282.178C69.6614 277.284 72.5262 272.437 75.4353 267.61C78.2666 262.888 81.0387 258.131 83.8125 253.375C84.43 252.317 85.0474 251.258 85.6836 250.168C89.3559 243.861 92.9768 237.529 96.5288 231.153C99.9166 225.096 103.429 219.113 106.938 213.125C111.038 206.125 115.093 199.109 119 192C124.083 182.752 129.423 173.657 134.754 164.551C139.589 156.292 144.323 147.979 149.02 139.641C155.116 128.821 161.28 118.052 167.605 107.364C175.24 94.4286 182.817 81.4593 190.133 68.3398C194.231 61.0094 198.458 53.7548 202.688 46.5C203.617 44.9046 203.617 44.9046 204.566 43.2771C208.378 36.7482 212.221 30.2407 216.146 23.7788C218.567 19.7775 220.819 15.7127 222.93 11.539C224 9.99997 224 9.99997 227 8.99997C228.433 8.90743 229.87 8.86941 231.307 8.86626C232.625 8.85986 232.625 8.85986 233.97 8.85333C234.932 8.85379 235.893 8.85424 236.884 8.85471C237.899 8.85135 238.914 8.84799 239.96 8.84453C243.323 8.83501 246.687 8.83307 250.051 8.832C252.386 8.82879 254.722 8.82542 257.057 8.82191C261.957 8.81592 266.857 8.81407 271.758 8.81467C278.036 8.81477 284.314 8.80112 290.592 8.78389C295.417 8.77277 300.243 8.77075 305.068 8.77128C307.383 8.7701 309.697 8.76567 312.012 8.75794C315.251 8.74814 318.489 8.75102 321.728 8.75705C323.161 8.74862 323.161 8.74862 324.623 8.74002C330.574 8.76815 335.762 8.82458 340.25 13.1875C343.611 18.5898 344.251 23.9912 344.279 30.2576C344.284 30.9537 344.29 31.6498 344.296 32.367C344.313 34.6808 344.316 36.9945 344.319 39.3083C344.328 40.9744 344.338 42.6404 344.349 44.3064C344.377 48.8162 344.392 53.3259 344.405 57.8357C344.42 62.5537 344.447 67.2715 344.473 71.9894C344.52 80.9175 344.556 89.8456 344.589 98.7738C344.628 108.941 344.677 119.107 344.727 129.274C344.831 150.183 344.92 171.091 345 192C345.278 191.499 345.556 190.998 345.843 190.483C347.129 188.165 348.416 185.848 349.703 183.531C350.14 182.744 350.577 181.957 351.028 181.145C363.53 158.636 363.53 158.636 368.514 150.444C379.053 133.107 389.456 115.66 399.266 97.8984C402.519 92.035 405.889 86.2397 409.25 80.4375C413.768 72.6294 418.254 64.807 422.641 56.9245C426.426 50.1647 430.43 43.534 434.399 36.8813C437.789 31.1624 440.859 25.4203 443.73 19.4258C446.966 13.2441 449.88 7.8877 457.262 7.85953Z" fill="#01A0D2"/>
<path d="M231.307 8.88966C232.625 8.88327 232.625 8.88327 233.97 8.87674C234.932 8.87719 235.893 8.87765 236.884 8.87811C237.899 8.87475 238.914 8.8714 239.96 8.86794C243.323 8.85842 246.687 8.85648 250.051 8.85541C252.386 8.8522 254.722 8.84883 257.057 8.84532C261.957 8.83933 266.857 8.83748 271.758 8.83807C278.036 8.83818 284.314 8.82453 290.592 8.8073C295.417 8.79618 300.243 8.79415 305.068 8.79468C307.383 8.7935 309.697 8.78908 312.012 8.78135C315.251 8.77155 318.489 8.77443 321.728 8.78046C323.161 8.77203 323.161 8.77203 324.623 8.76343C330.574 8.79155 335.762 8.84799 340.25 13.2109C343.634 18.6491 344.252 24.1 344.305 30.406C344.314 31.1156 344.323 31.8252 344.332 32.5563C344.358 34.916 344.37 37.2756 344.382 39.6354C344.398 41.3344 344.415 43.0334 344.432 44.7323C344.477 49.3332 344.508 53.9341 344.536 58.5351C344.555 61.4099 344.576 64.2846 344.598 67.1592C344.674 77.1879 344.741 87.2165 344.798 97.2453C344.851 106.596 344.927 115.946 345.013 125.297C345.086 133.328 345.143 141.358 345.189 149.389C345.216 154.185 345.25 158.98 345.299 163.776C345.345 168.281 345.371 172.786 345.383 177.292C345.39 178.946 345.405 180.6 345.426 182.255C345.455 184.511 345.502 188.007 345.5 190.263C345 191.263 345.5 190.263 345 192.263C343.5 195.763 343.5 197.003 341.5 200.263C340.797 202.586 339.635 204.681 339 207.023C337.753 209.694 336.295 212.227 334.813 214.773C334.411 215.477 334.01 216.18 333.596 216.904C331.321 220.856 328.943 224.713 326.438 228.523C323.126 233.599 320.454 238.909 317.84 244.367C315.844 248.499 313.558 252.202 311 256.023C309.775 258.389 308.586 260.748 307.438 263.148C303.5 270 303.5 270.5 301 274.023C300.34 274.023 300.18 275.023 299.5 275.023C299.232 275.575 298.276 277.195 298 277.763C296.685 280.342 295.462 280.774 294 283.273C293.484 284.165 292.969 285.057 292.438 285.977C291.726 286.99 291.726 286.99 291 288.023C290.5 288.735 290.5 289 289.5 289.763C288.84 291.743 287.68 291.983 287 294.023C286.34 294.023 287 294.023 286.5 295.023C286.5 295.5 286.5 295.023 285.375 296.461C283 302.763 279.5 307 276.313 312.086C273.519 315.634 271.986 318.254 270.5 322.5C269.84 323.16 269.68 324.343 269 325.023C268.322 326.65 267.645 328.277 266.973 329.906C264.27 335.79 260.602 341.187 256.875 346.461C254.093 350.547 252.624 354.666 251.059 359.328C249.664 362.878 247.697 365.753 245.5 368.852C244.032 370.977 242.787 373.126 241.563 375.398C239.127 379.906 236.37 384.169 233.551 388.445C230.738 393.121 229.746 396.554 230 402.023C227.658 401.087 226.276 400.449 224.885 398.305C223.797 395.5 223.738 393.275 223.722 390.265C223.71 389.09 223.699 387.915 223.688 386.705C223.686 385.419 223.683 384.134 223.681 382.81C223.672 381.439 223.662 380.069 223.651 378.699C223.623 374.983 223.608 371.266 223.595 367.55C223.58 363.665 223.553 359.779 223.527 355.894C223.48 348.539 223.444 341.183 223.411 333.827C223.372 325.452 223.323 317.078 223.273 308.703C223.169 291.476 223.08 274.25 223 257.023C219.834 260.113 217.406 262.624 215.578 266.668C212.946 272.217 209.903 277.444 206.75 282.711C206.181 283.668 205.612 284.624 205.025 285.61C203.354 288.417 201.678 291.221 200 294.023C199.544 294.785 199.089 295.547 198.62 296.332C195.558 301.452 192.488 306.566 189.398 311.668C186.362 316.693 183.421 321.766 180.521 326.872C177.083 332.909 173.571 338.902 170.063 344.898C166.058 351.748 162.069 358.603 158.188 365.523C157.837 366.147 157.487 366.771 157.126 367.414C155.297 370.678 153.491 373.953 151.699 377.238C140.039 398.515 140.039 398.515 130 402.023C125.943 402.574 121.937 402.54 117.848 402.493C116.054 402.497 116.054 402.497 114.224 402.5C110.966 402.502 107.708 402.486 104.45 402.462C101.034 402.441 97.6173 402.441 94.2008 402.439C88.4704 402.433 82.7403 402.412 77.01 402.38C69.6545 402.34 62.2991 402.322 54.9435 402.313C48.6126 402.304 42.2817 402.287 35.9508 402.268C34.5932 402.264 33.2356 402.26 31.878 402.256C27.4202 402.245 22.9624 402.225 18.5047 402.2C17.3779 402.198 16.2511 402.195 15.0901 402.192C13.5489 402.182 13.5489 402.181 11.9765 402.171C11.0826 402.166 10.1887 402.162 9.26775 402.158C7.00001 402.023 7.00002 402.023 4.00002 401.023C1.32953 391.413 10.4745 380.271 15.1211 372.047C21.1344 361.503 27.346 351.072 33.6172 340.68C34.2117 339.694 34.2117 339.694 34.8181 338.688C35.8431 336.992 36.8725 335.299 37.9024 333.605C40.1893 329.768 42.2978 325.835 44.427 321.908C46.9434 317.293 49.5337 312.721 52.125 308.148C52.682 307.165 53.2389 306.181 53.8128 305.167C57.6788 298.343 61.5529 291.524 65.4375 284.711C66.1445 283.469 66.1445 283.469 66.8657 282.202C69.6614 277.307 72.5262 272.461 75.4353 267.633C78.2666 262.911 81.0387 258.154 83.8125 253.398C84.43 252.34 85.0474 251.282 85.6836 250.191C89.3559 243.884 92.9768 237.552 96.5288 231.177C99.9166 225.119 103.429 219.136 106.938 213.148C111.038 206.149 115.093 199.133 119 192.023C124.083 182.775 129.423 173.681 134.754 164.574C139.589 156.316 144.323 148.002 149.02 139.664C155.116 128.844 161.28 118.075 167.605 107.388C175.24 94.452 182.817 81.4828 190.133 68.3632C194.231 61.0328 198.458 53.7782 202.688 46.5234C203.617 44.928 203.617 44.928 204.566 43.3005C208.378 36.7716 212.221 30.2641 216.146 23.8022C218.567 19.8009 220.819 15.7361 222.93 11.5624C224.967 8.6335 228.049 8.89681 231.307 8.88966Z" fill="#DD2A1B"/>
</svg>
