<svg width="61" height="44" viewBox="0 0 61 44" fill="none" xmlns="http://www.w3.org/2000/svg">
<path d="M46.8794 0.825344C46.9711 0.824744 47.0628 0.824144 47.1573 0.823527C47.3086 0.82335 47.3086 0.82335 47.4629 0.823171C47.569 0.822649 47.675 0.822128 47.7843 0.821591C48.1363 0.820053 48.4884 0.819341 48.8405 0.818761C49.0846 0.818157 49.3288 0.817553 49.573 0.816947C50.0856 0.815843 50.5983 0.81523 51.1109 0.814864C51.7677 0.814289 52.4246 0.811766 53.0814 0.808776C53.5861 0.806821 54.0908 0.806274 54.5954 0.806113C54.8376 0.805795 55.0797 0.804951 55.3218 0.803573C55.6608 0.801782 55.9997 0.801979 56.3386 0.802661C56.4887 0.801209 56.4887 0.801209 56.6418 0.799728C57.1798 0.803117 57.5657 0.838957 58.0273 1.15513C58.4384 1.70145 58.5527 2.0847 58.5534 2.7649C58.5537 2.86694 58.5537 2.86694 58.554 2.97104C58.5546 3.20057 58.5544 3.43009 58.5543 3.65961C58.5546 3.8252 58.5549 3.99078 58.5552 4.15637C58.5561 4.61262 58.5562 5.06887 58.5563 5.52513C58.5565 6.01669 58.5573 6.50825 58.558 6.99981C58.5594 8.07506 58.56 9.15031 58.5604 10.2256C58.5607 10.8964 58.5611 11.5673 58.5616 12.2381C58.5629 14.0941 58.5639 15.9501 58.5643 17.8061C58.5643 17.9249 58.5643 18.0437 58.5643 18.1662C58.5644 18.2853 58.5644 18.4044 58.5644 18.5271C58.5644 18.7685 58.5645 19.0099 58.5645 19.2513C58.5646 19.371 58.5646 19.4907 58.5646 19.6141C58.565 21.556 58.5668 23.498 58.5692 25.44C58.5716 27.4319 58.5729 29.4238 58.573 31.4157C58.5731 32.5349 58.5737 33.654 58.5756 34.7732C58.5771 35.7257 58.5777 36.6783 58.5768 37.6309C58.5764 38.1173 58.5765 38.6037 58.5779 39.0901C58.5792 39.5348 58.5791 39.9794 58.5779 40.4241C58.5777 40.5856 58.578 40.747 58.5789 40.9085C58.58 41.1268 58.5793 41.345 58.578 41.5633C58.5781 41.7458 58.5781 41.7458 58.5782 41.9319C58.5593 42.0719 58.5593 42.0719 58.5399 42.2148C58.2193 42.4337 58.1486 42.4511 57.7844 42.4515C57.6929 42.4521 57.6013 42.4527 57.507 42.4533C57.3568 42.4526 57.3568 42.4526 57.2035 42.452C57.0977 42.4524 56.992 42.4527 56.8831 42.4531C56.5326 42.454 56.182 42.4534 55.8315 42.4527C55.588 42.4529 55.3444 42.4531 55.1009 42.4533C54.5897 42.4536 54.0786 42.4532 53.5674 42.4522C52.9132 42.451 52.259 42.4517 51.6049 42.4529C51.1015 42.4537 50.5982 42.4535 50.0948 42.4529C49.8537 42.4528 49.6126 42.453 49.3715 42.4534C49.0336 42.454 48.6957 42.4532 48.3578 42.452C48.2587 42.4524 48.1595 42.4528 48.0574 42.4533C46.664 42.4444 46.664 42.4444 46.2686 42.0347C46.1004 41.7329 46.0955 41.533 46.094 41.1861C46.0921 40.9997 46.0921 40.9997 46.0901 40.8095C46.0903 40.6056 46.0903 40.6056 46.0905 40.3975C46.0896 40.2526 46.0886 40.1077 46.0874 39.9628C46.0845 39.5697 46.0836 39.1766 46.083 38.7835C46.082 38.3725 46.0793 37.9616 46.0768 37.5507C46.0723 36.7727 46.0694 35.9947 46.067 35.2166C46.0643 34.3308 46.0598 33.445 46.0551 32.5592C46.0456 30.7372 46.0383 28.9151 46.0323 27.0931C45.6997 27.3364 45.5334 27.5254 45.3467 27.9004C45.2941 28.003 45.2415 28.1056 45.1873 28.2113C45.0981 28.3855 45.0981 28.3855 45.0071 28.5632C44.5313 29.4619 44.0337 30.3394 43.4867 31.1946C43.1983 31.6478 42.9414 32.1116 42.6936 32.589C42.5459 32.87 42.3909 33.1451 42.2327 33.42C41.8849 34.027 41.5454 34.6385 41.2074 35.2512C41.1506 35.3543 41.0937 35.4573 41.0351 35.5635C40.7318 36.1139 40.4301 36.6652 40.1306 37.2177C37.5833 41.9142 37.5833 41.9142 36.7029 42.2148C36.4038 42.2384 36.1063 42.2568 35.8067 42.271C35.7166 42.2755 35.6266 42.28 35.5338 42.2847C35.342 42.2942 35.1502 42.3034 34.9583 42.3124C34.6728 42.326 34.3873 42.3406 34.1019 42.3553C31.9311 42.463 29.7641 42.4237 27.5919 42.3857C27.1904 42.3788 26.789 42.3726 26.3876 42.3664C26.1294 42.362 25.8712 42.3575 25.613 42.353C25.4945 42.3513 25.3759 42.3495 25.2538 42.3477C24.935 42.3418 24.6166 42.3316 24.2979 42.3198C24.2081 42.3187 24.1182 42.3176 24.0257 42.3165C23.9041 42.3106 23.9041 42.3106 23.78 42.3046C23.711 42.3025 23.6419 42.3003 23.5708 42.2981C23.3198 42.1912 23.1855 42.0455 23.0459 41.8084C22.8588 41.2902 22.9071 40.7183 22.9091 40.1733C22.9082 40.0294 22.9072 39.8855 22.9059 39.7416C22.9031 39.3521 22.9027 38.9628 22.9028 38.5733C22.9025 38.1659 22.8999 37.7585 22.8975 37.3511C22.8933 36.5801 22.8913 35.8092 22.8899 35.0382C22.8883 34.1603 22.8844 33.2824 22.8802 32.4044C22.8718 30.599 22.8662 28.7935 22.8626 26.9881C22.538 27.3125 22.289 27.5762 22.1017 28.0009C21.8318 28.5836 21.5199 29.1325 21.1966 29.6856C21.1383 29.786 21.0799 29.8865 21.0198 29.99C20.8485 30.2848 20.6766 30.5792 20.5046 30.8735C20.4579 30.9535 20.4112 31.0335 20.3631 31.116C20.0493 31.6536 19.7345 32.1906 19.4177 32.7264C19.1064 33.2541 18.8049 33.7869 18.5076 34.323C18.1552 34.957 17.7951 35.5863 17.4354 36.216C17.0249 36.9353 16.6159 37.6552 16.2179 38.3819C16.182 38.4474 16.1461 38.5129 16.1091 38.5804C15.9217 38.9232 15.7364 39.2671 15.5528 39.6121C14.3574 41.8464 14.3574 41.8464 13.3281 42.2148C12.9122 42.2726 12.5016 42.2691 12.0823 42.2641C11.8984 42.2645 11.8984 42.2645 11.7108 42.2648C11.3767 42.265 11.0428 42.2634 10.7088 42.2608C10.3585 42.2586 10.0082 42.2587 9.65796 42.2585C9.07048 42.2578 8.48302 42.2556 7.89555 42.2522C7.14145 42.248 6.38737 42.2462 5.63327 42.2452C4.98422 42.2443 4.33517 42.2425 3.68612 42.2405C3.54693 42.24 3.40775 42.2396 3.26857 42.2393C2.81155 42.2381 2.35454 42.236 1.89752 42.2334C1.782 42.2331 1.66648 42.2328 1.54746 42.2325C1.38945 42.2314 1.38945 42.2314 1.22825 42.2302C1.1366 42.2298 1.04496 42.2293 0.950541 42.2289C0.718051 42.2148 0.718051 42.2148 0.410488 42.1098C0.136707 41.1006 1.07426 39.9305 1.55063 39.0669C2.16712 37.9597 2.80394 36.8643 3.44687 35.773C3.50782 35.6694 3.50782 35.6694 3.56999 35.5638C3.67508 35.3857 3.78061 35.2079 3.88619 35.0301C4.12065 34.6271 4.33681 34.2141 4.55511 33.8017C4.81309 33.3171 5.07865 32.837 5.34431 32.3568C5.40141 32.2535 5.45851 32.1502 5.51734 32.0437C5.91369 31.3272 6.31086 30.6111 6.70912 29.8956C6.7816 29.7651 6.7816 29.7651 6.85555 29.6321C7.14216 29.1181 7.43586 28.6091 7.73411 28.1022C8.02437 27.6063 8.30857 27.1068 8.59295 26.6074C8.65625 26.4963 8.71955 26.3851 8.78477 26.2706C9.16126 25.6083 9.53248 24.9434 9.89664 24.2739C10.2439 23.6378 10.604 23.0094 10.9637 22.3807C11.3841 21.6456 11.7998 20.9089 12.2004 20.1623C12.7216 19.1911 13.2689 18.2361 13.8155 17.2798C14.3112 16.4125 14.7966 15.5395 15.278 14.6639C15.9031 13.5277 16.535 12.3968 17.1834 11.2745C17.9662 9.91613 18.743 8.5542 19.493 7.1765C19.9132 6.40672 20.3465 5.6449 20.7801 4.88305C20.8755 4.71552 20.8755 4.71552 20.9727 4.54461C21.3635 3.859 21.7576 3.17563 22.1599 2.49705C22.4082 2.07687 22.639 1.65002 22.8554 1.21174C22.9651 1.05012 22.9651 1.05012 23.2727 0.945104C23.4196 0.935386 23.5669 0.931393 23.7142 0.931062C23.8494 0.93039 23.8494 0.93039 23.9873 0.929705C24.0858 0.929753 24.1844 0.9298 24.286 0.929849C24.39 0.929497 24.4941 0.929144 24.6013 0.92878C24.9462 0.927781 25.291 0.927578 25.6359 0.927465C25.8753 0.927128 26.1147 0.926774 26.3542 0.926406C26.8565 0.925776 27.3589 0.925583 27.8613 0.925645C28.5049 0.925655 29.1485 0.924222 29.7922 0.922413C30.2869 0.921245 30.7816 0.921033 31.2763 0.921088C31.5136 0.920964 31.7509 0.9205 31.9882 0.919688C32.3202 0.918659 32.6522 0.918961 32.9843 0.919594C33.1312 0.918709 33.1312 0.918709 33.2811 0.917806C33.8911 0.920759 34.4231 0.926686 34.8832 1.38484C35.2278 1.95215 35.2933 2.51937 35.2962 3.17741C35.2968 3.25051 35.2974 3.32361 35.298 3.39893C35.2997 3.6419 35.3 3.88486 35.3003 4.12784C35.3013 4.3028 35.3023 4.47775 35.3034 4.6527C35.3062 5.12628 35.3078 5.59986 35.3091 6.07344C35.3107 6.56888 35.3135 7.06431 35.3161 7.55974C35.3209 8.4973 35.3247 9.43486 35.3281 10.3724C35.332 11.4401 35.337 12.5077 35.3422 13.5753C35.3528 15.771 35.3619 17.9666 35.3702 20.1623C35.3987 20.1097 35.4272 20.0571 35.4565 20.0029C35.5885 19.7596 35.7204 19.5163 35.8523 19.273C35.8971 19.1903 35.942 19.1076 35.9881 19.0224C37.2699 16.6587 37.2699 16.6587 37.7809 15.7984C38.8613 13.9779 39.9278 12.1457 40.9335 10.2805C41.2671 9.66477 41.6126 9.0562 41.9571 8.44689C42.4203 7.62696 42.8803 6.80551 43.33 5.97775C43.7181 5.26789 44.1285 4.57159 44.5354 3.87298C44.883 3.27242 45.1977 2.66944 45.4921 2.03994C45.8238 1.39078 46.1226 0.828302 46.8794 0.825344Z" fill="#01A0D2"/>
<path d="M23.7142 0.933529C23.8494 0.932857 23.8494 0.932857 23.9872 0.932172C24.0858 0.93222 24.1844 0.932267 24.286 0.932316C24.39 0.931963 24.4941 0.931611 24.6013 0.931247C24.9462 0.930248 25.291 0.930045 25.6359 0.929932C25.8753 0.929594 26.1147 0.929241 26.3542 0.928873C26.8565 0.928243 27.3589 0.928049 27.8613 0.928112C28.5049 0.928122 29.1485 0.926689 29.7922 0.92488C30.2869 0.923712 30.7816 0.9235 31.2763 0.923555C31.5136 0.923431 31.7509 0.922967 31.9882 0.922155C32.3202 0.921126 32.6522 0.921428 32.9843 0.922061C33.1312 0.921176 33.1312 0.921176 33.2811 0.920273C33.8911 0.923226 34.4231 0.929153 34.8832 1.38731C35.2301 1.95839 35.2935 2.53079 35.2989 3.193C35.2998 3.26752 35.3007 3.34204 35.3016 3.41881C35.3043 3.66661 35.3056 3.91439 35.3068 4.1622C35.3085 4.34061 35.3102 4.51902 35.3119 4.69743C35.3165 5.18058 35.3197 5.66373 35.3226 6.1469C35.3245 6.44878 35.3267 6.75065 35.3289 7.05253C35.3368 8.10566 35.3436 9.15879 35.3494 10.2119C35.3549 11.1939 35.3627 12.1758 35.3715 13.1577C35.3789 14.001 35.3848 14.8443 35.3895 15.6876C35.3923 16.1912 35.3957 16.6948 35.4008 17.1984C35.4055 17.6715 35.4082 18.1446 35.4094 18.6177C35.4101 18.7915 35.4116 18.9652 35.4139 19.1389C35.4168 19.3758 35.4217 19.743 35.4214 19.9799C35.3701 20.085 35.4214 19.9799 35.3701 20.19C35.2164 20.5575 35.2164 20.6877 35.0113 21.0301C34.9393 21.274 34.8201 21.494 34.755 21.7399C34.6271 22.0204 34.4777 22.2864 34.3257 22.5538C34.2846 22.6276 34.2434 22.7015 34.201 22.7775C33.9678 23.1925 33.724 23.5975 33.4671 23.9977C33.1276 24.5307 32.8536 25.0883 32.5856 25.6615C32.3811 26.0954 32.1466 26.4842 31.8844 26.8855C31.7589 27.1339 31.637 27.3816 31.5192 27.6337C31.1155 28.3532 31.1155 28.4057 30.8592 28.7757C30.7916 28.7757 30.7752 28.8808 30.7054 28.8808C30.678 28.9387 30.58 29.1088 30.5517 29.1685C30.4168 29.4393 30.2914 29.4847 30.1416 29.7471C30.0887 29.8408 30.0359 29.9344 29.9814 30.031C29.9084 30.1374 29.9084 30.1374 29.834 30.2459C29.7828 30.3207 29.7828 30.3485 29.6802 30.4286C29.6126 30.6366 29.4936 30.6617 29.4239 30.876C29.3563 30.876 29.4239 30.876 29.3727 30.981C29.3727 31.031 29.3727 30.981 29.2573 31.1319C29.0138 31.7938 28.655 32.2387 28.3282 32.7728C28.0419 33.1453 27.8847 33.4205 27.7323 33.8664C27.6647 33.9357 27.6483 34.0599 27.5786 34.1313C27.5091 34.3022 27.4397 34.473 27.3707 34.6441C27.0936 35.2619 26.7176 35.8287 26.3355 36.3825C26.0503 36.8117 25.8996 37.2441 25.7392 37.7337C25.5962 38.1065 25.3946 38.4085 25.1693 38.7338C25.0188 38.957 24.8912 39.1827 24.7656 39.4213C24.5159 39.8947 24.2333 40.3423 23.9443 40.7914C23.6559 41.2824 23.5542 41.6429 23.5802 42.2173C23.3402 42.1189 23.1985 42.0519 23.0558 41.8268C22.9443 41.5323 22.9382 41.2985 22.9366 40.9825C22.9354 40.8591 22.9343 40.7357 22.9331 40.6086C22.9329 40.4736 22.9326 40.3386 22.9324 40.1996C22.9315 40.0557 22.9304 39.9118 22.9293 39.768C22.9265 39.3777 22.9249 38.9874 22.9236 38.5971C22.922 38.1891 22.9193 37.7811 22.9166 37.3732C22.9118 36.6007 22.9081 35.8283 22.9047 35.0558C22.9008 34.1764 22.8957 33.2969 22.8905 32.4175C22.8799 30.6085 22.8708 28.7995 22.8626 26.9905C22.538 27.315 22.289 27.5787 22.1017 28.0033C21.8318 28.586 21.5199 29.135 21.1966 29.688C21.1383 29.7885 21.0799 29.889 21.0198 29.9925C20.8485 30.2872 20.6766 30.5817 20.5046 30.876C20.4579 30.956 20.4112 31.036 20.3631 31.1185C20.0493 31.6561 19.7345 32.1931 19.4177 32.7289C19.1064 33.2566 18.8049 33.7893 18.5076 34.3254C18.1552 34.9594 17.7951 35.5888 17.4354 36.2185C17.0249 36.9378 16.6159 37.6576 16.2179 38.3843C16.182 38.4498 16.1461 38.5153 16.1091 38.5828C15.9217 38.9256 15.7364 39.2696 15.5528 39.6145C14.3574 41.8489 14.3574 41.8489 13.3281 42.2173C12.9122 42.2751 12.5016 42.2715 12.0823 42.2666C11.8984 42.267 11.8984 42.267 11.7108 42.2673C11.3767 42.2675 11.0428 42.2659 10.7088 42.2633C10.3585 42.2611 10.0082 42.2611 9.65796 42.2609C9.07048 42.2603 8.48302 42.258 7.89555 42.2547C7.14145 42.2505 6.38737 42.2487 5.63327 42.2477C4.98422 42.2468 4.33517 42.245 3.68612 42.2429C3.54693 42.2425 3.40775 42.2421 3.26857 42.2417C2.81155 42.2406 2.35454 42.2384 1.89752 42.2359C1.782 42.2356 1.66648 42.2353 1.54746 42.235C1.38945 42.2339 1.38945 42.2339 1.22825 42.2327C1.1366 42.2323 1.04496 42.2318 0.950541 42.2314C0.718051 42.2173 0.718051 42.2173 0.410488 42.1123C0.136707 41.103 1.07426 39.933 1.55063 39.0694C2.16712 37.9622 2.80394 36.8667 3.44687 35.7754C3.50782 35.6719 3.50782 35.6719 3.56999 35.5663C3.67508 35.3882 3.78061 35.2104 3.88619 35.0326C4.12065 34.6295 4.33681 34.2165 4.5551 33.8042C4.81309 33.3196 5.07865 32.8395 5.34431 32.3593C5.40141 32.256 5.45851 32.1526 5.51734 32.0462C5.91369 31.3296 6.31086 30.6135 6.70912 29.898C6.7816 29.7676 6.7816 29.7676 6.85554 29.6345C7.14216 29.1206 7.43586 28.6116 7.73411 28.1047C8.02437 27.6088 8.30857 27.1093 8.59295 26.6099C8.65625 26.4987 8.71955 26.3876 8.78477 26.2731C9.16126 25.6107 9.53248 24.9458 9.89663 24.2763C10.2439 23.6402 10.604 23.0119 10.9637 22.3831C11.3841 21.6481 11.7998 20.9113 12.2004 20.1648C12.7215 19.1936 13.2689 18.2386 13.8155 17.2823C14.3112 16.415 14.7966 15.542 15.278 14.6664C15.9031 13.5302 16.5349 12.3993 17.1834 11.277C17.9662 9.91859 18.743 8.55667 19.493 7.17896C19.9132 6.40919 20.3465 5.64737 20.7801 4.88552C20.8755 4.71799 20.8755 4.71799 20.9727 4.54708C21.3635 3.86147 21.7576 3.1781 22.1599 2.49952C22.4082 2.07934 22.639 1.65248 22.8554 1.2142C23.0642 0.906629 23.3802 0.93428 23.7142 0.933529Z" fill="#DD2A1B"/>
</svg>
